<?xml version="1.0" encoding="utf-8"?>
<!-- Svg Vector Icons : http://www.onlinewebfonts.com/icon -->
<!DOCTYPE svg PUBLIC "-//W3C//DTD SVG 1.1//EN" "http://www.w3.org/Graphics/SVG/1.1/DTD/svg11.dtd">
<svg style="fill: #FFFFFF;" version="1.1" xmlns="http://www.w3.org/2000/svg" xmlns:xlink="http://www.w3.org/1999/xlink" x="0px" y="0px" viewBox="0 0 1000 1000" enable-background="new 0 0 1000 1000" xml:space="preserve">
<metadata> Svg Vector Icons : http://www.onlinewebfonts.com/icon </metadata>
<g><g><path d="M791.4,835c-188.5-18.3-77.4-342.4-38.2-314.7c81.6,40.2,77.4-56.6,209,64.6c53.1-155.3,23.7-279.6-39.8-238.5c-78.9,56.4-149.4,84.9-135.8,41.9c148.7-399.8-509.4-513.6-559.9-69.1c-29,55.2-128.4-56.9-167.2-53.2c-51.7,13.6-62.1,91.6-35,227.6c109.1-105.2,103.1-35,189.5-47.5c23.3,355.5,189.5,545.5,581.2,474.4c76.4-17,139,4.9,194.8,46.1C984.2,894.8,918.4,851,791.4,835z M358,185.4l120.9,119.1C397.3,345.3,310.5,272,358,185.4z M638.4,438.6L638.4,438.6c-8.8,23.4-24.3,47.2-46.5,71.3l-17.2-27.2l-40.3,44.8l-27.1-47.8l-41.1,52.4l-15.4-62.6l-39.8,40.6l-14.7-75.3l-42.8,36.9l-2.9-66.4l-19,14.1c-2.3-12.1-3.9-34-5-65.8C351.1,400.9,394,434,455.3,453c8.7,2.1,19,3.8,31,5.1C540.6,463.8,591.3,457.4,638.4,438.6L638.4,438.6L638.4,438.6z M572.4,318l156.8-65C740.6,351.1,632.6,386.5,572.4,318z"/></g><g></g><g></g><g></g><g></g><g></g><g></g><g></g><g></g><g></g><g></g><g></g><g></g><g></g><g></g><g></g></g>
</svg>